<svg id="Layer_1" data-name="Layer 1" xmlns="http://www.w3.org/2000/svg" viewBox="0 0 100 100"><defs><style>.cls-1{fill:#fff;}</style></defs><title>erpnext-logo</title><path d="M0,12A12,12,0,0,1,12,0H88a12,12,0,0,1,12,12V88a12,12,0,0,1-12,12H12A12,12,0,0,1,0,88Z"/><text/><path d="M47.55,40.21A1.18,1.18,0,0,1,48.73,39h7.5a1.18,1.18,0,0,1,1.18,1.19v7.5a1.18,1.18,0,0,1-1.18,1.18h-7.5a1.18,1.18,0,0,1-1.18-1.18Z"/><text/><rect class="cls-1" x="7.91" y="30.81" width="11.23" height="36.56"/><polygon class="cls-1" points="56.44 30.81 56.44 67.36 45.22 67.36 45.22 53.14 36.64 53.14 36.64 67.36 25.43 67.36 25.43 30.81 36.64 30.81 36.64 44.25 45.22 44.25 45.22 30.81 56.44 30.81"/><path class="cls-1" d="M93.78,46.8V67.37h-5.5a20.91,20.91,0,0,0-1.47-3.84Q83.41,67.94,76.74,68a15.1,15.1,0,0,1-11.63-5q-4.56-5-4.55-13.43A21.77,21.77,0,0,1,65,35.71q4.41-5.61,13.11-5.6c4.36,0,7.87,1.1,10.54,3.33a15.76,15.76,0,0,1,5.17,9.46L82.9,44c-.55-3.82-2.21-5.72-5-5.72q-5.52,0-5.52,10.53,0,6.38,1.77,8.41a5.47,5.47,0,0,0,4.28,2A5.16,5.16,0,0,0,81.89,58a4.26,4.26,0,0,0,1.46-3.38h-6v-7.8H93.78Z"/></svg>